<?xml version="1.0" standalone="no"?>
<!DOCTYPE svg PUBLIC "-//W3C//DTD SVG 20010904//EN"
 "http://www.w3.org/TR/2001/REC-SVG-20010904/DTD/svg10.dtd">
<svg version="1.0" xmlns="http://www.w3.org/2000/svg"
 width="1280.000000pt" height="1124.000000pt" viewBox="0 0 1280.000000 1124.000000"
 preserveAspectRatio="xMidYMid meet">
<g transform="translate(0.000000,1124.000000) scale(0.100000,-0.100000)"
fill="#000000" stroke="none">
<path d="M1953 11220 c-407 -39 -803 -118 -1132 -227 -139 -46 -150 -69 -172
-368 -19 -270 -17 -295 36 -329 12 -8 301 -126 641 -262 697 -278 809 -327
801 -348 -3 -8 -62 -100 -131 -205 -148 -225 -169 -238 -190 -116 -24 140 -55
222 -99 264 -27 24 -247 93 -1082 336 -511 148 -472 139 -505 125 -39 -16 -47
-44 -65 -220 -8 -85 -22 -204 -31 -265 -28 -194 -28 -216 -4 -337 34 -172 86
-295 176 -418 95 -130 238 -264 615 -577 113 -94 216 -185 228 -202 34 -48 35
-89 7 -291 -14 -102 -31 -243 -38 -313 -17 -184 -22 -177 202 -284 262 -124
404 -187 515 -228 228 -85 496 -137 1020 -200 306 -36 431 -55 543 -81 269
-63 561 -207 782 -387 215 -175 3926 -3441 5225 -4597 1474 -1312 1561 -1388
1720 -1482 157 -93 313 -149 512 -184 153 -26 233 -30 310 -14 26 5 91 17 143
26 410 73 714 357 790 739 6 33 16 79 21 102 13 61 11 105 -11 223 -37 199
-77 306 -169 445 -117 181 -190 249 -661 620 -1111 875 -1161 915 -2740 2195
-1788 1450 -2285 1852 -2946 2383 -320 256 -628 508 -685 560 -414 373 -712
844 -860 1358 -16 57 -50 202 -75 324 -78 380 -149 641 -279 1015 -128 371
-292 625 -521 810 -301 242 -647 349 -1323 410 -262 24 -314 24 -568 0z m642
-95 c435 -22 862 -162 1137 -372 86 -66 209 -193 229 -238 33 -73 30 -82 -128
-324 -391 -602 -583 -881 -604 -881 -12 0 -49 7 -83 16 -40 11 -110 17 -206
17 -216 3 -223 -2 -417 -312 -65 -102 -188 -298 -275 -436 -208 -327 -206
-294 -23 -470 74 -71 135 -136 135 -143 0 -25 -113 -182 -131 -182 -9 0 -39 9
-66 21 -57 24 -540 148 -700 180 -111 21 -168 45 -179 74 -13 34 11 88 112
250 276 440 514 816 692 1090 108 165 208 327 223 360 73 162 78 396 10 541
-49 104 -90 129 -360 218 -209 68 -770 271 -916 330 -48 19 -61 29 -63 48 -2
14 3 30 11 36 21 18 686 130 962 163 115 13 406 27 480 23 28 -2 100 -6 160
-9z m-1760 -1332 c792 -228 754 -216 793 -256 52 -53 84 -159 90 -293 7 -168
-22 -250 -150 -424 -38 -52 -94 -136 -125 -187 -30 -51 -61 -97 -69 -104 -17
-14 -85 28 -274 170 -399 298 -700 624 -840 906 -40 82 -64 145 -75 200 -16
78 -13 144 6 156 19 11 83 -5 644 -168z m2459 -793 c244 -62 436 -250 493
-484 16 -66 16 -70 -3 -104 -30 -56 -46 -60 -89 -27 -24 18 -46 48 -61 84 -90
211 -189 318 -336 362 -101 31 -183 29 -297 -5 -94 -28 -95 -28 -148 -12 -43
14 -53 21 -53 39 0 122 275 203 494 147z m-220 -354 c215 -42 404 -183 499
-374 30 -60 42 -99 45 -140 4 -65 -17 -135 -41 -140 -17 -3 -107 73 -107 91 0
6 -18 48 -40 94 -55 113 -138 201 -236 250 -68 33 -84 37 -177 41 -80 3 -120
0 -190 -17 -73 -17 -96 -19 -137 -10 -58 12 -61 23 -27 84 27 49 79 77 208
110 114 29 110 28 203 11z m1554 -53 c11 -27 32 -88 47 -138 125 -420 348
-783 645 -1053 137 -124 1867 -1569 2350 -1963 897 -731 2754 -2208 4130
-3284 267 -209 513 -408 548 -443 142 -143 232 -347 232 -524 -1 -277 -236
-590 -542 -720 -88 -37 -230 -68 -316 -68 -189 0 -479 102 -684 241 -97 66
-173 134 -948 842 -1461 1337 -2966 2698 -5543 5012 -309 277 -432 357 -677
439 -198 66 -255 91 -254 113 0 13 603 1000 951 1556 13 20 27 37 32 37 5 0
18 -21 29 -47z m-1668 -334 c234 -64 422 -244 485 -462 16 -54 16 -61 -1 -112
-23 -76 -33 -81 -80 -44 -43 33 -41 32 -107 169 -74 154 -179 243 -326 276
-82 19 -186 14 -281 -11 -65 -18 -92 -18 -142 -4 -45 12 -47 27 -15 84 27 47
50 60 177 96 115 34 191 36 290 8z"/>
<path d="M4590 7299 c-32 -13 -78 -57 -96 -91 -20 -39 -17 -88 7 -128 37 -61
193 -204 1084 -999 3738 -3334 4899 -4367 4930 -4388 34 -23 55 -24 55 -1 0
24 78 136 139 201 101 107 232 191 394 252 32 12 59 26 60 31 0 5 -804 654
-1789 1442 -984 788 -2403 1925 -3152 2525 -750 601 -1388 1107 -1418 1126
-44 28 -65 34 -121 37 -37 2 -79 -1 -93 -7z"/>
<path d="M11367 1870 c-135 -45 -209 -82 -289 -145 -152 -119 -237 -330 -209
-514 25 -157 77 -256 197 -370 448 -426 1246 -163 1247 410 0 183 -82 350
-234 476 -66 54 -211 126 -299 147 -66 16 -224 36 -270 35 -14 0 -78 -18 -143
-39z m416 -355 c163 -42 270 -142 318 -296 54 -172 -8 -300 -183 -385 -106
-50 -200 -68 -327 -61 -181 10 -336 74 -449 186 -116 115 -120 202 -16 348 89
125 215 199 389 227 50 8 208 -3 268 -19z"/>
</g>
</svg>
